<?xml version="1.0" standalone="no"?><!DOCTYPE svg PUBLIC "-//W3C//DTD SVG 1.1//EN" "http://www.w3.org/Graphics/SVG/1.1/DTD/svg11.dtd"><svg t="1696146755047" class="icon" viewBox="0 0 1024 1024" version="1.1" xmlns="http://www.w3.org/2000/svg" p-id="2664" xmlns:xlink="http://www.w3.org/1999/xlink" width="200" height="200"><path d="M441.6 96.33H324.71l-8.18 10.55h133.25l-8.18-10.55zM560.86 117.42H364.34l-8.18-10.54h212.88l-8.18 10.54zM267.16 135.37h116.89l8.18-10.55H258.98l8.18 10.55zM227.53 114.28h116.89l8.18 10.54H219.35l8.18-10.54zM582.65 96.33h116.9l8.18 10.55H574.47l8.18-10.55z" fill="#0EBBCB" p-id="2665"></path><path d="M543.02 117.42H659.91l8.19-10.54H534.84l8.18 10.54zM757.1 135.37H640.2l-8.18-10.55h133.25l-8.17 10.55zM796.73 114.28h-116.9l-8.18 10.54h133.26l-8.18-10.54zM582.65 182.54h116.9l8.18-10.55H574.47l8.18 10.55zM463.4 161.45H659.92l8.18 10.54H455.22l8.18-10.54zM757.1 143.5H640.2l-8.18 10.54h133.25l-8.17-10.54zM796.73 164.59h-116.9l-8.18-10.55h133.26l-8.18 10.55zM441.6 182.54H324.71l-8.18-10.55h133.25l-8.18 10.55z" fill="#0EBBCB" p-id="2666"></path><path d="M481.24 161.45h-116.9l-8.18 10.54h133.26l-8.18-10.54zM267.16 143.5h116.9l8.18 10.54H258.98l8.18-10.54zM227.53 164.59h116.89l8.18-10.55H219.35l8.18 10.55z" fill="#0EBBCB" p-id="2667"></path><path d="M582.4 927.67h116.89l8.18-10.55H574.22l8.18 10.55zM463.14 906.58H659.66l8.18 10.54H454.96l8.18-10.54zM756.84 888.64H639.95l-8.18 10.54h133.25l-8.18-10.54zM796.48 909.73h-116.9l-8.18-10.55h133.25l-8.17 10.55zM441.35 927.67h-116.9l-8.18-10.55h133.26l-8.18 10.55z" fill="#0EBBCB" p-id="2668"></path><path d="M480.98 906.58h-116.9l-8.18 10.54h133.26l-8.18-10.54zM266.9 888.64h116.9l8.18 10.54H258.72l8.18-10.54zM227.27 909.73h116.9l8.18-10.55H219.09l8.18 10.55zM441.35 841.47h-116.9l-8.18 10.54h133.26l-8.18-10.54zM560.6 862.55H364.08l-8.18-10.54h212.88l-8.18 10.54zM266.9 880.5h116.9l8.18-10.54H258.72l8.18 10.54zM227.27 859.41h116.9l8.18 10.55H219.09l8.18-10.55zM582.4 841.47h116.89l8.18 10.54H574.22l8.18-10.54z" fill="#0EBBCB" p-id="2669"></path><path d="M542.76 862.55h116.9l8.18-10.54H534.58l8.18 10.54zM756.84 880.5H639.95l-8.19-10.54h133.26l-8.18 10.54zM796.47 859.41H679.58l-8.18 10.55h133.25l-8.18-10.55z" fill="#0EBBCB" p-id="2670"></path><path d="M311.5 563.6a14.56 14.56 0 1 0 14.57 14.56 14.54 14.54 0 0 0-14.57-14.56z m0-76.21a14.58 14.58 0 1 0 10.3 4.27 14.57 14.57 0 0 0-10.3-4.27z m58.21-47.06h86.91A72.77 72.77 0 1 0 381 366.86v0.35a14.57 14.57 0 0 0 29.07 0 43.7 43.7 0 1 1 43.63 43.71h-84a14.57 14.57 0 1 0 0 29.13zM311.5 411.2a14.56 14.56 0 1 0 10.3 4.26 14.56 14.56 0 0 0-10.3-4.26z m260.61 152.54h-202.4a14.57 14.57 0 1 0 0 29.13h198.06a53.37 53.37 0 1 1-53.37 53.37 14.56 14.56 0 0 0-29.06 0v0.42a82.5 82.5 0 1 0 86.84-83z m0 0" fill="#0EBBCB" p-id="2671"></path><path d="M633.74 322.74a97.07 97.07 0 0 0-96.16 84 13.55 13.55 0 0 0-0.42 3.29v0.43a14.57 14.57 0 0 0 29.07 0 67.94 67.94 0 1 1 67.3 77H369.71a14.57 14.57 0 1 0 0 29.13h264.52a97.07 97.07 0 0 0-0.49-193.93z m0 0" fill="#0EBBCB" p-id="2672"></path></svg>