<?xml version="1.0" standalone="no"?><!DOCTYPE svg PUBLIC "-//W3C//DTD SVG 1.1//EN" "http://www.w3.org/Graphics/SVG/1.1/DTD/svg11.dtd"><svg t="1696146715000" class="icon" viewBox="0 0 1024 1024" version="1.1" xmlns="http://www.w3.org/2000/svg" p-id="2519" xmlns:xlink="http://www.w3.org/1999/xlink" width="200" height="200"><path d="M441.6 96.33H324.71l-8.18 10.55h133.25l-8.18-10.55zM560.86 117.42H364.34l-8.18-10.54h212.88l-8.18 10.54zM267.16 135.37h116.89l8.18-10.55H258.98l8.18 10.55zM227.53 114.28h116.89l8.18 10.54H219.35l8.18-10.54zM582.65 96.33h116.9l8.18 10.55H574.47l8.18-10.55z" fill="#0EBBCB" p-id="2520"></path><path d="M543.02 117.42H659.91l8.19-10.54H534.84l8.18 10.54zM757.1 135.37H640.2l-8.18-10.55h133.25l-8.17 10.55zM796.73 114.28h-116.9l-8.18 10.54h133.26l-8.18-10.54zM582.65 182.54h116.9l8.18-10.55H574.47l8.18 10.55zM463.4 161.45H659.92l8.18 10.54H455.22l8.18-10.54zM757.1 143.5H640.2l-8.18 10.54h133.25l-8.17-10.54zM796.73 164.59h-116.9l-8.18-10.55h133.26l-8.18 10.55zM441.6 182.54H324.71l-8.18-10.55h133.25l-8.18 10.55z" fill="#0EBBCB" p-id="2521"></path><path d="M481.24 161.45h-116.9l-8.18 10.54h133.26l-8.18-10.54zM267.16 143.5h116.9l8.18 10.54H258.98l8.18-10.54zM227.53 164.59h116.89l8.18-10.55H219.35l8.18 10.55z" fill="#0EBBCB" p-id="2522"></path><path d="M582.4 927.67h116.89l8.18-10.55H574.22l8.18 10.55zM463.14 906.58H659.66l8.18 10.54H454.96l8.18-10.54zM756.84 888.64H639.95l-8.18 10.54h133.25l-8.18-10.54zM796.48 909.73h-116.9l-8.18-10.55h133.25l-8.17 10.55zM441.35 927.67h-116.9l-8.18-10.55h133.26l-8.18 10.55z" fill="#0EBBCB" p-id="2523"></path><path d="M480.98 906.58h-116.9l-8.18 10.54h133.26l-8.18-10.54zM266.9 888.64h116.9l8.18 10.54H258.72l8.18-10.54zM227.27 909.73h116.9l8.18-10.55H219.09l8.18 10.55zM441.35 841.47h-116.9l-8.18 10.54h133.26l-8.18-10.54zM560.6 862.55H364.08l-8.18-10.54h212.88l-8.18 10.54zM266.9 880.5h116.9l8.18-10.54H258.72l8.18 10.54zM227.27 859.41h116.9l8.18 10.55H219.09l8.18-10.55zM582.4 841.47h116.89l8.18 10.54H574.22l8.18-10.54z" fill="#0EBBCB" p-id="2524"></path><path d="M542.76 862.55h116.9l8.18-10.54H534.58l8.18 10.54zM756.84 880.5H639.95l-8.19-10.54h133.26l-8.18 10.54zM796.47 859.41H679.58l-8.18 10.55h133.25l-8.18-10.55z" fill="#0EBBCB" p-id="2525"></path><path d="M665.51 489.14a14 14 0 0 0-12.06-7.39 14.5 14.5 0 0 0-12.27 7l-2 3.55c-26.62 46.07-62.72 109.15-62.72 147.13a77.22 77.22 0 1 0 154.37 0c0-33-27.88-83.63-52.48-127.61-4.81-8-9.06-15.68-12.82-22.65zM653.24 689.3A49.61 49.61 0 0 1 604 639.4c0-26.14 27.25-77.08 48.78-115.27l0.63 1.18c20.91 37.29 48.79 88.3 48.79 114.09a49.7 49.7 0 0 1-48.93 49.9zM458.1 363.9c-7.81-13.94-15.26-27.39-21.81-39.73l-4.12-7.59a14.09 14.09 0 0 0-24.32 0l-8.64 14.21C355 407.88 287.7 524.4 287.7 590.82a132.42 132.42 0 1 0 264.83-0.07c0-57.84-51.78-151-93.32-225.94z m-38 332.3a104.9 104.9 0 0 1-104.53-105.38c0-57 60.85-164.27 104-239.05 4.46 8.22 9.27 16.8 13.94 25.65l0.48 0.91c37.92 68.3 89.84 161.83 89.84 212.35A105.16 105.16 0 0 1 420.12 696.2z m311.34-227.48c-7-6.41-9.62-16.87-12.48-28.92-4.11-17.5-9.2-39.24-31.85-53-27.87-16.94-54.36-7-77.77 1.46-16.24 5.92-31.65 11.57-45.79 8-55.2-13.94-51.65-78.76-51.51-81.62a13.94 13.94 0 1 0-27.81-1.95c-2.23 31.3 10 94.79 72.42 110.54 22.58 5.71 43.69-2 62.3-8.85 23.14-8.51 38.12-13.25 53.67-3.77 12.33 7.6 15.12 18.26 19.3 35.48 3.42 14.63 7.32 31.15 20.91 43.42a13.94 13.94 0 0 0 18.61-20.77z m0 0" fill="#0EBBCB" p-id="2526"></path></svg>