<?xml version="1.0" standalone="no"?><!DOCTYPE svg PUBLIC "-//W3C//DTD SVG 1.1//EN" "http://www.w3.org/Graphics/SVG/1.1/DTD/svg11.dtd"><svg t="1696146838400" class="icon" viewBox="0 0 1024 1024" version="1.1" xmlns="http://www.w3.org/2000/svg" p-id="5835" xmlns:xlink="http://www.w3.org/1999/xlink" width="200" height="200"><path d="M344.73 841.5c0 8.28 6.77 15.31 15.31 15.31h32.75v1.26c0 40.65 51.69 73.52 115.43 73.52s115.18-32.87 115.18-73.52v-1.26h28.48c8.53 0 15.31-7.03 15.31-15.31v-59.95H344.96c-0.23 33.17-0.23 59.95-0.23 59.95zM512.1 98.23c-187.2 0-338.76 140.02-338.76 312.67 0 89.83 40.9 170.89 106.65 227.85 14.1 12.12 26.16 26.24 35.98 41.69h137.08l-31.49-352.21 4.6-0.02v-0.1h149.83v0.11l2.61 0.01-31.49 352.21h149.23c6.92-8.25 14.58-15.91 23.54-22.37 79.8-57.21 130.99-146.55 130.99-247.17C850.86 238.25 699.3 98.23 512.1 98.23zM343.93 759.53h323.25v-1.34c0-17.26 3.88-33.93 10.87-49.21H330.27c6.72 16.12 11.77 32.96 13.66 50.55z" fill="#F7B52C" p-id="5836"></path><path d="M546.38 357.44h-92.6l28.87 323h34.85z" fill="#F7B52C" p-id="5837"></path></svg>