<?xml version="1.0" standalone="no"?><!DOCTYPE svg PUBLIC "-//W3C//DTD SVG 1.1//EN" "http://www.w3.org/Graphics/SVG/1.1/DTD/svg11.dtd"><svg t="1696146667584" class="icon" viewBox="0 0 1024 1024" version="1.1" xmlns="http://www.w3.org/2000/svg" p-id="2357" xmlns:xlink="http://www.w3.org/1999/xlink" width="200" height="200"><path d="M210.67 310.08C169.28 331.68 174 370.15 174 371.4c0 0.05 0.38 2.67 0.38 2.71v286.66s-0.05 14.42 0 14.86c0 0-0.35 2-0.34 2-0.46 6.06-2.17 41.26 36.63 61.54l0.82 0.45 0.47 0.25 247.87 142.86s15.51 9 16 9.16l0.85 0.7a65.3 65.3 0 0 0 25.34 8.08 73.75 73.75 0 0 0 8.2 0.43c11.36-0.06 23-2.79 34.76-8.15L800 746.6c11.71-8.79 42.35-36.77 42.78-62.39 0.07-0.24 0.07-13.65 0.07-13.89l-0.33-145.59L843 379v-14c-0.43-25.49-30.77-53.4-42.58-62.28L545.93 156.34c-11.72-5.35-23.31-8.09-34.51-8.14a69.26 69.26 0 0 0-8.49 0.48 62.43 62.43 0 0 0-23.81 7.64l-1.85 1.33c-0.52 0.17-16 9.07-16 9.07l-1.32 0.76zM178.2 249.4l260.19-148.84a116.19 116.19 0 0 1 14.11-8 135.71 135.71 0 0 1 58.18-13.26c2.31 0 4.61 0 6.92 0.15 19.74 0.92 39.51 6 58.88 15.17l2.52 1.32 258.79 148.87 1.36 0.94c7.09 5.07 64.7 47.65 72 107.57a109.6 109.6 0 0 1 0.78 13l-0.52 158.41 0.36 158.09a108.5 108.5 0 0 1-0.83 13.35c-7.44 59.86-65.09 102.3-72.24 107.36l-1.7 1.12-1.08 0.69S576.8 954.06 575.56 954.64c-19.35 9.13-39.16 14.23-59 15.16q-3.52 0.16-7 0.15A138.35 138.35 0 0 1 451 956.76a117.77 117.77 0 0 1-14.42-8L178.15 799.82c-63-33.25-72.66-88.86-73-116.87a127.94 127.94 0 0 1 0.43-13.72V380.07a128.67 128.67 0 0 1-0.43-13.76c0.35-28.04 10.05-83.66 73.05-116.91z" fill="#0EBBCB" opacity=".05" p-id="2358"></path><path d="M210.23 309.12c-41.06 21.43-37 59.37-37.21 61.5 0 0.1 0.35 2.64 0.34 2.73-0.08 0.93 0 15.17 0 15.19v272.89c0 0.07-0.1 14.05 0 14.93 0 0.07-0.32 1.93-0.31 2-0.34 6.69-1.51 41.55 37.1 61.75l0.83 0.45 0.46 0.25L460 884.09s15.06 8.76 16.11 9.11c0 0 0.82 0.67 0.86 0.68a67.77 67.77 0 0 0 25.47 7.9 72.29 72.29 0 0 0 8.23 0.38c11.39-0.1 23.08-2.87 34.84-8.24l255.09-146.4c11.4-8.52 42.34-36.52 43.21-62.6 0.12-0.46 0.16-13.46 0.16-13.94l-0.33-146.25 0.49-146.43c0-0.49 0-13.61-0.16-14.08-0.86-26-31.54-53.87-43-62.47L546.43 155.38c-11.74-5.37-23.35-8.14-34.58-8.25a72 72 0 0 0-8.51 0.44 65.93 65.93 0 0 0-23.93 7.43c-0.08 0-1.8 1.27-1.88 1.3-1 0.35-16.06 9-16.07 9l-1.32 0.76z m-31.45-58.77l259.55-148.5a122.43 122.43 0 0 1 14.07-7.95 135.29 135.29 0 0 1 58-13.46c2.29 0 4.59 0 6.9 0.13 19.68 0.88 39.41 5.92 58.75 15.07l2.39 1.24 258.79 148.86 1.35 0.94c7.19 5.15 64.59 47.69 71.48 107.27a113 113 0 0 1 0.75 13l-0.53 157.84 0.36 157.5a114.38 114.38 0 0 1-0.78 13.31c-7.07 59.49-64.47 101.88-71.75 107-0.07 0.06-1.65 1.07-1.66 1.09l-1.08 0.69S576.29 953.11 575.12 953.66c-19.32 9.11-39.09 14.17-58.88 15.06-2.34 0.1-4.67 0.15-7 0.14a137.83 137.83 0 0 1-58.32-13.41 121.73 121.73 0 0 1-14.38-8L178.73 798.87c-62.66-33.07-72.23-88.63-72.38-116.54a132 132 0 0 1 0.41-13.66v-288a132.78 132.78 0 0 1-0.41-13.7c0.16-27.97 9.75-83.54 72.43-116.62z" fill="#0EBBCB" opacity=".1" p-id="2359"></path><path d="M209.79 308.16c-40.73 21.25-37.44 58.68-37.72 61.68 0 0.15 0.32 2.61 0.31 2.74-0.13 1.4 0 15.25 0 15.27v274.23c0 0.1-0.15 13.68 0 15 0 0.11-0.31 1.91-0.29 2-0.22 7.31-0.84 41.83 37.58 61.95l0.83 0.45 0.46 0.25 249.27 143.7s14.61 8.54 16.19 9.07c0 0 0.82 0.65 0.87 0.67a69.71 69.71 0 0 0 25.6 7.7 70.79 70.79 0 0 0 8.25 0.35c11.42-0.16 23.14-3 34.92-8.35l255.17-146.44c11-8.24 42.27-36.25 43.57-62.79 0.19-0.7 0.26-13.28 0.26-14l-0.33-146.92 0.49-147.08c0-0.73-0.07-13.43-0.25-14.13-1.3-26.43-32.31-54.35-43.38-62.67L546.93 154.41c-11.75-5.38-23.39-8.18-34.66-8.34a70.8 70.8 0 0 0-8.53 0.39 69.59 69.59 0 0 0-24.05 7.26c-0.11 0-1.79 1.23-1.89 1.27-1.58 0.53-16.14 9-16.15 9l-1.32 0.77z m-30.43-56.86l258.91-148.16a127.84 127.84 0 0 1 14-7.94 134.7 134.7 0 0 1 57.75-13.67c2.28 0 4.58 0 6.88 0.12 19.63 0.83 39.32 5.85 58.62 15l2.31 1.2 258.8 148.85 1.34 0.94c7.28 5.23 64.47 47.73 71 107a119.65 119.65 0 0 1 0.7 12.93l-0.52 157.25 0.36 156.92a120.52 120.52 0 0 1-0.74 13.26c-6.7 59.12-63.85 101.47-71.26 106.76l-1.65 1.08-1.08 0.68s-259 148.64-260.11 149.15c-19.28 9.1-39 14.13-58.75 15q-3.49 0.15-7 0.12a137.34 137.34 0 0 1-58.12-13.61 129.46 129.46 0 0 1-14.33-8L179.32 797.91C117 765 107.51 709.51 107.58 681.72c-0.11-5.15 0.14-11 0.38-13.61V381.2c-0.24-2.59-0.49-8.49-0.38-13.66-0.06-27.82 9.42-83.33 71.78-116.24z" fill="#0EBBCB" opacity=".14" p-id="2360"></path><path d="M209.35 307.2c-40.4 21.08-37.84 58-38.23 61.86 0 0.2 0.29 2.57 0.28 2.76-0.18 1.87 0 15.31 0 15.34v275.56c0 0.14-0.2 13.31-0.05 15.07 0 0.13-0.28 1.88-0.27 2C171 687.76 171 722 209.17 742l0.84 0.45 0.46 0.25 250 144.11s14.15 8.33 16.26 9c0.07 0 0.81 0.62 0.88 0.64a71.91 71.91 0 0 0 25.68 7.55 73.78 73.78 0 0 0 8.27 0.31 87.92 87.92 0 0 0 35-8.45l255.27-146.52c10.61-8 42.24-36 44-63 0.24-0.93 0.36-13.09 0.36-14.06l-0.35-147.57 0.5-147.74c0-1-0.11-13.25-0.35-14.19-1.74-26.89-33.08-54.82-43.77-62.86L547.43 153.45c-11.77-5.4-23.43-8.23-34.73-8.45a76.26 76.26 0 0 0-8.56 0.34 73.25 73.25 0 0 0-24.14 7.08c-0.15 0.05-1.78 1.19-1.92 1.24-2.1 0.7-16.2 9-16.22 9l-1.32 0.78zM180 252.26l258.21-147.83a136.2 136.2 0 0 1 71.53-21.8c2.28 0 4.57 0 6.87 0.1 19.58 0.78 39.23 5.77 58.48 14.87l2.23 1.16L836.11 247.6l1.33 0.94c7.38 5.31 64.36 47.77 70.53 106.65a124.37 124.37 0 0 1 0.66 12.88l-0.52 156.68 0.36 156.33a124.91 124.91 0 0 1-0.7 13.21c-6.32 58.76-63.21 101.06-70.76 106.46-0.14 0.11-1.6 1-1.64 1.08l-1.07 0.68s-259 148.69-260.08 149.18c-19.24 9.08-38.92 14.08-58.61 14.87-2.34 0.09-4.66 0.13-7 0.1a138.09 138.09 0 0 1-72.19-21.83L179.9 797c-62-32.72-71.38-88.17-71.1-115.86-0.1-4.86 0.14-11.11 0.37-13.55V381.76c-0.23-2.44-0.47-8.72-0.36-13.6-0.28-27.71 9.1-83.16 71.19-115.9z" fill="#0EBBCB" opacity=".19" p-id="2361"></path><path d="M208.9 306.23c-40.06 20.91-38.22 57.3-38.73 62 0 0.25 0.26 2.54 0.24 2.77-0.21 2.34 0 15.38 0.05 15.42v276.9c0 0.18-0.26 13-0.07 15.14 0 0.17-0.26 1.86-0.24 2 0 8.57 0.51 42.42 38.53 62.37l0.85 0.46 0.46 0.25 250.62 144.61s13.71 8.1 16.34 9c0.09 0 0.81 0.6 0.89 0.63a72.51 72.51 0 0 0 34.15 7.6 89.24 89.24 0 0 0 35.09-8.55l255.35-146.58c10.24-7.68 42.2-35.72 44.36-63.19 0.31-1.16 0.46-12.89 0.46-14.11l-0.35-148.24 0.5-148.39c0-1.22-0.14-13.07-0.45-14.25-2.17-27.35-33.84-55.3-44.17-63.05L547.93 152.48c-11.78-5.41-23.47-8.27-34.81-8.54a74.53 74.53 0 0 0-8.57 0.29c-13.56 1.39-22.52 6.3-24.29 6.89-0.19 0.06-1.76 1.15-1.94 1.21-2.62 0.88-16.27 8.91-16.29 8.93l-1.32 0.79z m-28.37-53l257.62-147.51a141.34 141.34 0 0 1 14-7.91 133.33 133.33 0 0 1 57.32-14.09q3.41 0 6.85 0.09c19.53 0.73 39.13 5.69 58.35 14.77l2.15 1.13 258.72 148.83 1.33 0.93c7.48 5.39 64.25 47.81 70 106.34 0.41 3.26 0.62 9.45 0.62 12.84l-0.49 156.1 0.36 155.74a130.05 130.05 0 0 1-0.66 13.17c-6 58.38-62.59 100.64-70.26 106.15-0.19 0.14-1.59 1.05-1.64 1.08l-1.06 0.68s-259 148.68-260 149.14c-19.2 9.06-38.84 14-58.48 14.77q-3.49 0.13-6.95 0.09a135.7 135.7 0 0 1-57.68-14 144.86 144.86 0 0 1-14.26-8L180.49 796c-61.71-32.54-71-88-70.46-115.52-0.09-4.58 0.13-11.21 0.35-13.5V382.33c-0.22-2.3-0.44-9-0.35-13.55-0.49-27.6 8.78-83.02 70.5-115.57z" fill="#0EBBCB" opacity=".24" p-id="2362"></path><path d="M208.46 305.27c-39.73 20.74-38.61 56.6-39.24 62.23 0 0.3 0.23 2.51 0.21 2.79-0.26 2.8 0 15.44 0 15.49l0.06 2V663l-0.06 1c0 0.2-0.3 12.58-0.08 15.21 0 0.2-0.23 1.82-0.21 2 0.16 9.19 1.18 42.7 39 62.57l0.85 0.46 0.46 0.25L460.81 889.5s13.25 7.89 16.41 9c0.1 0 0.8 0.58 0.91 0.61a76.37 76.37 0 0 0 26 7.15 75.31 75.31 0 0 0 8.31 0.22 90.15 90.15 0 0 0 35.18-8.65L803 751.16c9.87-7.4 42.16-35.46 44.76-63.38 0.37-1.4 0.55-12.71 0.55-14.17l-0.31-148.9 0.5-149c0-1.47-0.18-12.9-0.55-14.3-2.6-27.83-34.61-55.78-44.56-63.25l-255-146.6c-11.8-5.42-23.5-8.32-34.88-8.64a77.83 77.83 0 0 0-8.6 0.25c-13.35 1.3-22.3 6-24.4 6.7-0.23 0.07-1.75 1.11-2 1.18-3.14 1.06-16.33 8.87-16.36 8.89l-1.32 0.8z m-27.35-51.11L438.09 107A150 150 0 0 1 452 99.11a132.25 132.25 0 0 1 57.1-14.29q3.39-0.06 6.83 0.06c19.47 0.7 39 5.62 58.21 14.69l2.08 1.08L835 249.47l1.32 0.93c7.57 5.47 64.13 47.85 69.58 106 0.38 3.06 0.58 9.62 0.58 12.79l-0.52 155.53 0.36 155.15c0 3.26-0.2 10-0.61 13.12-5.58 58-62 100.23-69.77 105.85-0.22 0.16-1.57 1-1.62 1.08l-1.07 0.67s-259 148.68-259.91 149.11c-19.17 9-38.76 14-58.34 14.67-2.33 0.08-4.64 0.11-6.94 0.07a134.85 134.85 0 0 1-57.47-14.24 150.69 150.69 0 0 1-14.21-8L181.07 795.06c-61.39-32.37-70.53-87.73-69.81-115.19-0.09-4.29 0.12-11.29 0.33-13.44V382.89c-0.21-2.15-0.42-9.19-0.33-13.5-0.71-27.48 8.45-82.85 69.85-115.23z" fill="#0EBBCB" opacity=".29" p-id="2363"></path><path d="M208 304.31c-39.4 20.56-39 55.91-39.75 62.41 0 0.35 0.2 2.48 0.17 2.8-0.3 3.27 0.06 15.51 0.07 15.57l0.06 2v276.58l-0.06 1c0 0.24-0.36 12.21-0.1 15.28 0 0.24-0.21 1.8-0.18 2 0.29 9.82 1.85 43 39.48 62.78l0.85 0.46 0.47 0.25L461 890.85s12.8 7.67 16.49 8.91c0.12 0 0.8 0.56 0.92 0.6a78.47 78.47 0 0 0 26.11 7 76 76 0 0 0 8.33 0.18 91.52 91.52 0 0 0 35.26-8.75l255.52-146.72c9.5-7.12 42.12-35.19 45.15-63.58 0.43-1.63 0.65-12.52 0.65-14.22l-0.35-149.56 0.5-149.71c0-1.72-0.21-12.72-0.64-14.36-3-28.29-35.38-56.25-45-63.43l-255-146.66a90.83 90.83 0 0 0-35-8.75 78.52 78.52 0 0 0-8.62 0.21c-13.13 1.21-22.08 5.73-24.51 6.52-0.27 0.08-1.74 1.06-2 1.14-3.67 1.23-16.41 8.83-16.44 8.86l-1.33 0.81z m-26.3-49.19L438 108.29c1.84-1.24 9.5-5.79 13.89-7.88a131.46 131.46 0 0 1 56.88-14.5q3.39-0.06 6.82 0c19.42 0.65 38.94 5.55 58.08 14.59l2 1 258.75 148.9c0.05 0 1.1 0.77 1.31 0.93 7.67 5.55 64 47.89 69.1 105.73 0.36 2.84 0.54 9.78 0.54 12.74l-0.51 154.94 0.36 154.58c0 3-0.19 10.14-0.57 13.06-5.21 57.62-61.35 99.82-69.28 105.55-0.26 0.19-1.55 1-1.61 1.08l-1.06 0.67s-259 148.66-259.82 149.07c-19.14 9-38.69 13.92-58.22 14.57q-3.48 0.12-6.92 0a133.78 133.78 0 0 1-57.25-14.44 162.3 162.3 0 0 1-14.17-8L181.66 794.1c-61.07-32.18-70.1-87.49-69.17-114.84-0.08-4 0.11-11.38 0.3-13.39V383.46c-0.19-2-0.38-9.43-0.3-13.45-0.93-27.38 8.12-82.69 69.21-114.89z" fill="#0EBBCB" opacity=".33" p-id="2364"></path><path d="M207.58 303.35c-39.07 20.39-39.4 55.21-40.26 62.59 0 0.4 0.17 2.45 0.14 2.82-0.34 3.73 0.06 15.57 0.07 15.64l0.08 2v277.92l-0.08 1c0 0.28-0.41 11.85-0.11 15.35 0 0.27-0.18 1.78-0.15 2.07 0.41 10.44 2.52 43.28 40 63 0.11 0.07 0.73 0.4 0.85 0.46l0.47 0.25L461.2 892.21s12.35 7.45 16.56 8.86c0.14 0 0.79 0.54 0.93 0.58a80.44 80.44 0 0 0 26.23 6.78 76.91 76.91 0 0 0 8.36 0.14 92.56 92.56 0 0 0 35.34-8.86L804.23 753c9.13-6.84 42.08-34.93 45.55-63.77 0.49-1.87 0.74-12.34 0.74-14.28l-0.35-150.23 0.5-150.36c0-2-0.25-12.54-0.74-14.42-3.47-28.76-36.15-56.72-45.36-63.62L549.44 149.58a92 92 0 0 0-35-8.84 79.25 79.25 0 0 0-8.64 0.16c-12.93 1.12-21.87 5.44-24.64 6.33-0.3 0.09-1.72 1-2 1.11-4.19 1.41-16.47 8.79-16.51 8.82l-1.33 0.82z m-25.3-47.28L438 109.58c1.7-1.15 9.77-5.92 13.85-7.87A130.27 130.27 0 0 1 508.49 87c2.25-0.05 4.51 0 6.8 0 19.37 0.6 38.85 5.47 58 14.49l1.92 1 258.69 148.8c0.07 0 1.07 0.74 1.31 0.92 7.77 5.63 63.91 47.93 68.62 105.42 0.34 2.64 0.5 9.94 0.5 12.69l-0.51 154.37 0.37 154c0 2.82-0.18 10.31-0.53 13-4.89 57.31-60.77 99.47-68.84 105.31-0.29 0.22-1.53 1-1.6 1.08l-1.06 0.66s-258.93 148.66-259.73 149c-19.1 9-38.61 13.88-58.09 14.48q-3.48 0.1-6.9 0a132.59 132.59 0 0 1-57-14.66c-4.23-2-12.45-6.85-14.13-8l-254-146.5c-60.75-32-69.67-87.27-68.52-114.51-0.08-3.72 0.11-11.46 0.28-13.33V384c-0.18-1.86-0.36-9.66-0.28-13.39-1.22-27.25 7.72-82.52 68.49-114.54z" fill="#0EBBCB" opacity=".38" p-id="2365"></path><path d="M207.13 302.39c-38.73 20.21-39.78 54.51-40.76 62.77-0.05 0.45 0.14 2.42 0.1 2.83-0.38 4.2 0.07 15.64 0.08 15.72l0.09 2V665l-0.09 1c0 0.31-0.45 11.47-0.12 15.42 0 0.3-0.16 1.75-0.12 2.07 0.53 11.07 3.19 43.57 40.43 63.19l0.86 0.46 0.47 0.26 253.32 146.16s11.9 7.23 16.64 8.82c0.15 0.06 0.78 0.52 0.94 0.57a82.59 82.59 0 0 0 26.36 6.59 80.18 80.18 0 0 0 8.38 0.1 93.83 93.83 0 0 0 35.43-9l255.69-146.75c8.76-6.55 42-34.66 45.94-64 0.55-2.09 0.85-12.15 0.85-14.33l-0.36-150.89 0.5-151c0-2.21-0.29-12.36-0.84-14.47C847 330 814 302 805.17 295.39L549.94 148.62a93.22 93.22 0 0 0-35.12-9 80 80 0 0 0-8.66 0.12c-12.72 1-21.65 5.15-24.75 6.14-0.34 0.1-1.72 1-2 1.08-4.72 1.59-16.54 8.75-16.58 8.79l-1.33 0.82zM182.86 257l255.05-146.13c1.57-1.06 10-6.06 13.82-7.85a129 129 0 0 1 56.45-14.92h6.78c19.32 0.55 38.75 5.39 57.81 14.39l1.85 1 258.67 148.78 1.3 0.92c7.87 5.72 63.79 48 68.15 105.11 0.31 2.44 0.46 10.11 0.46 12.65l-0.51 153.79 0.36 153.4c0 2.6-0.16 10.47-0.48 13-4.47 56.91-60.1 99-68.3 104.94-0.33 0.25-1.5 1-1.59 1.08l-1 0.66S572.72 946.44 572 946.78c-19.06 9-38.53 13.82-58 14.38-2.32 0.07-4.62 0.07-6.89 0a131.44 131.44 0 0 1-56.82-14.86c-3.89-1.83-12.53-6.93-14.08-8L182.83 792.2c-60.44-31.83-69.25-87-67.88-114.17-0.07-3.44 0.1-11.56 0.26-13.28V384.59c-0.16-1.73-0.33-9.9-0.26-13.35-1.37-27.15 7.46-82.37 67.91-114.24z" fill="#0EBBCB" opacity=".43" p-id="2366"></path><path d="M206.69 301.43c-38.4 20-40.17 53.82-41.26 62.95-0.07 0.49 0.1 2.39 0.06 2.85-0.43 4.67 0.08 15.7 0.09 15.79l0.09 2.06v280.54l-0.09 1c-0.05 0.35-0.51 11.11-0.14 15.49 0 0.34-0.13 1.73-0.09 2.08 0.66 11.69 3.86 43.86 40.9 63.4l0.87 0.47 0.47 0.25 254 146.57s11.45 7 16.72 8.79c0.17 0 0.78 0.49 0.95 0.54a84 84 0 0 0 26.49 6.41 78.35 78.35 0 0 0 8.41 0.05 94.74 94.74 0 0 0 35.5-9.06l255.77-146.8c8.39-6.28 42-34.41 46.34-64.17 0.61-2.33 0.94-12 0.94-14.39l-0.37-151.56 0.51-151.69c0-2.45-0.32-12.18-0.94-14.53-4.34-29.69-37.68-57.68-46.15-64L550.44 147.65a94.26 94.26 0 0 0-35.19-9 80.85 80.85 0 0 0-8.69 0.07c-12.5 0.95-21.43 4.86-24.87 5.95-0.37 0.11-1.7 0.94-2.06 1.06-5.24 1.75-16.6 8.7-16.65 8.74l-1.33 0.83zM183.44 258l254.41-145.84c1.44-1 10.33-6.2 13.78-7.84a127.76 127.76 0 0 1 56.23-15.12q3.34-0.09 6.77 0c19.26 0.5 38.66 5.31 57.68 14.3l1.77 0.92L832.73 253.2l1.29 0.92c8 5.8 63.68 48 67.67 104.8 0.29 2.24 0.42 10.28 0.42 12.6l-0.51 153.21 0.4 152.82c0 2.39-0.15 10.63-0.44 12.92-4.1 56.55-59.48 98.59-67.8 104.64-0.37 0.28-1.49 1-1.58 1.08l-1 0.65s-258.89 148.64-259.57 149c-19 9-38.45 13.77-57.82 14.28q-3.47 0.09-6.87 0A129.87 129.87 0 0 1 450.24 945c-3.57-1.68-12.62-7-14.05-8L183.42 791.25c-60.13-31.66-68.83-86.82-67.24-113.84-0.07-3.14 0.09-11.64 0.24-13.22v-279c-0.15-1.58-0.31-10.13-0.24-13.29-1.58-27.08 7.13-82.25 67.26-113.9z" fill="#0EBBCB" opacity=".48" p-id="2367"></path><path d="M206.25 300.46c-38.07 19.87-40.57 53.13-41.77 63.14-0.07 0.54 0.07 2.36 0 2.86-0.47 5.14 0.09 15.77 0.1 15.87l0.11 2.07v281.86l-0.11 1c0 0.37-0.55 10.73-0.15 15.55 0 0.38-0.11 1.71-0.07 2.1 0.79 12.31 4.54 44.15 41.39 63.6l0.87 0.47 0.47 0.25 254.67 147s11 6.79 16.79 8.74c0.19 0.06 0.77 0.46 1 0.53a85.54 85.54 0 0 0 26.62 6.21 78.9 78.9 0 0 0 8.43 0 96.24 96.24 0 0 0 35.59-9.16L806 755.72c8-6 42-34.15 46.73-64.37 0.67-2.56 1-11.78 1-14.44l-0.37-152.22 0.51-152.33c0-2.7-0.36-12-1-14.59-4.77-30.16-38.44-58.15-46.54-64.2L550.94 146.68a95.68 95.68 0 0 0-35.27-9.14 81.26 81.26 0 0 0-8.7 0c-12.3 0.86-21.22 4.57-25 5.76-0.42 0.12-1.69 0.89-2.08 1-5.77 1.93-16.68 8.66-16.73 8.71l-1.33 0.84zM184 258.93l253.78-145.48c1.32-0.89 10.61-6.34 13.75-7.83a126.39 126.39 0 0 1 56-15.33c2.22-0.06 4.47-0.07 6.75 0 19.21 0.46 38.56 5.23 57.54 14.2l1.7 0.88 258.65 148.77c0.08 0.06 1 0.66 1.28 0.91 8.06 5.88 63.57 48.06 67.2 104.5 0.25 2 0.37 10.43 0.37 12.55l-0.5 152.63 0.36 152.27c0 2.17-0.12 10.79-0.4 12.88-3.72 56.12-58.84 98.12-67.3 104.3-0.41 0.3-1.47 1-1.57 1.07l-1.05 0.65S571.7 944.53 571.08 944.82c-19 8.94-38.37 13.72-57.68 14.18-2.32 0.06-4.6 0-6.86 0a128.63 128.63 0 0 1-56.38-15.28c-3.25-1.53-12.71-7.08-14-8L184 790.3c-59.8-31.48-68.4-86.59-66.59-113.5-0.06-2.86 0.08-11.73 0.21-13.17V385.72c-0.13-1.44-0.27-10.37-0.21-13.24-1.8-26.94 6.81-82.05 66.59-113.55z" fill="#0EBBCB" opacity=".52" p-id="2368"></path><path d="M205.81 299.5c-37.74 19.69-41 52.44-42.28 63.33-0.08 0.58 0 2.31 0 2.87a139.33 139.33 0 0 0 0.11 15.94l0.11 2.08v283.19l-0.11 1.05a139.5 139.5 0 0 0-0.17 15.63c0 0.41-0.08 1.67 0 2.1 0.91 12.94 5.21 44.44 41.86 63.81l0.88 0.47 0.46 0.25L462 897.62s10.55 6.58 16.87 8.7c0.2 0.07 0.77 0.44 1 0.51a86.85 86.85 0 0 0 26.74 6 79.47 79.47 0 0 0 8.45 0 97.72 97.72 0 0 0 35.67-9.26l256-147c7.66-5.72 41.93-33.88 47.13-64.57 0.73-2.79 1.13-11.58 1.13-14.5l-0.37-152.88 0.51-153c0-2.94-0.4-11.82-1.13-14.63-5.21-30.63-39.22-58.64-46.95-64.4L551.44 145.72a97 97 0 0 0-35.34-9.25 82 82 0 0 0-8.73 0c-12.09 0.77-21 4.28-25.1 5.57-0.46 0.13-1.68 0.85-2.11 1-6.29 2.11-16.74 8.62-16.8 8.67l-1.33 0.85z m-21.2-39.62l253.11-145.14c1.19-0.8 10.89-6.47 13.72-7.82a124.85 124.85 0 0 1 55.8-15.53c2.21-0.07 4.46-0.08 6.73 0 19.16 0.42 38.47 5.17 57.41 14.11l1.62 0.85 258.6 148.72c0.1 0.07 0.92 0.64 1.28 0.91 8.16 6 63.45 48.1 66.72 104.19 0.23 1.83 0.33 10.6 0.33 12.5l-0.5 152.06 0.37 151.64c0 2-0.11 11-0.36 12.83-3.35 55.81-58.22 97.76-66.81 104-0.44 0.32-1.45 1-1.56 1.07l-1 0.65S571.19 943.58 570.64 943.83c-18.95 8.93-38.29 13.67-57.56 14.09q-3.47 0.08-6.84 0a126.91 126.91 0 0 1-56.16-15.49c-2.93-1.37-12.8-7.16-14-7.93L184.59 789.34c-59.49-31.3-68-86.36-65.95-113.16-0.06-2.57 0.07-11.82 0.19-13.11V386.28c-0.12-1.29-0.25-10.6-0.19-13.19-2.02-26.82 6.48-81.89 65.97-113.21z" fill="#0EBBCB" opacity=".57" p-id="2369"></path><path d="M205.36 298.54C168 318.06 164 350.28 162.58 362.05c-0.08 0.63 0 2.28-0.05 2.88a130.68 130.68 0 0 0 0.12 16l0.13 2.09v284.54l-0.13 1.05a128.46 128.46 0 0 0-0.18 15.7c0 0.44-0.06 1.65 0 2.11 1 13.57 5.88 44.73 42.33 64l0.88 0.47 0.47 0.26 256 147.8s10.09 6.36 16.94 8.66c0.22 0.08 0.76 0.42 1 0.49A87.59 87.59 0 0 0 507 914a80.07 80.07 0 0 0 8.47-0.07 98.77 98.77 0 0 0 35.76-9.36l256-147c7.29-5.44 41.89-33.62 47.52-64.76 0.8-3 1.23-11.4 1.23-14.56l-0.37-153.54 0.51-153.71c0-3.18-0.43-11.64-1.23-14.69-5.64-31.09-40-59.11-47.34-64.59l-255.61-147a98.23 98.23 0 0 0-35.42-9.34 85.46 85.46 0 0 0-8.75-0.07c-11.87 0.7-20.77 4-25.22 5.39-0.49 0.15-1.66 0.81-2.13 1-6.81 2.28-16.81 8.58-16.87 8.64l-1.34 0.85z m-20.17-37.7L437.66 116c1-0.7 11.17-6.6 13.68-7.8a123.32 123.32 0 0 1 55.58-15.74q3.31-0.11 6.72 0c19.11 0.37 38.38 5.09 57.28 14l1.54 0.81L831 256c0.1 0.08 0.88 0.62 1.27 0.91 8.25 6 63.34 48.14 66.24 103.88 0.21 1.63 0.3 10.77 0.3 12.46l-0.5 151.48 0.36 151c0 1.74-0.09 11.11-0.31 12.78-3 55.44-57.6 97.35-66.32 103.74-0.48 0.35-1.43 1-1.55 1.07l-1 0.64s-258.81 148.66-259.3 148.89c-18.91 8.91-38.21 13.62-57.43 14q-3.45 0.06-6.82-0.06A125.37 125.37 0 0 1 450 941.1c-2.6-1.22-12.89-7.24-13.92-7.93L185.17 788.39c-59.17-31.12-67.54-86.13-65.31-112.82 0-2.29 0.07-11.91 0.18-13.06V386.85c-0.11-1.15-0.22-10.84-0.18-13.14C117.63 347 126 292 185.19 260.84z" fill="#0EBBCB" opacity=".62" p-id="2370"></path><path d="M204.92 297.58c-37.07 19.34-41.73 51.05-43.29 63.69-0.09 0.68 0 2.25-0.08 2.9a117.22 117.22 0 0 0 0.13 16.09l0.13 2.1v285.85l-0.13 1.06a116.39 116.39 0 0 0-0.2 15.77v2.12c1.16 14.19 6.55 45 42.81 64.22l0.88 0.47 0.47 0.26 256.7 148.22c0.05 0 9.64 6.14 17 8.61 0.24 0.08 0.76 0.4 1 0.48a89.15 89.15 0 0 0 27 5.66 83.36 83.36 0 0 0 8.49-0.11 100.25 100.25 0 0 0 35.84-9.46l256.16-147.06c6.92-5.16 41.85-33.35 47.92-65 0.85-3.26 1.32-11.21 1.32-14.61l-0.37-154.2 0.51-154.31c0-3.43-0.47-11.46-1.33-14.75-6.07-31.56-40.75-59.58-47.74-64.78l-255.7-147a99.59 99.59 0 0 0-35.44-9.46 86 86 0 0 0-8.77-0.11c-11.67 0.61-20.56 3.72-25.34 5.2-0.53 0.16-1.66 0.77-2.16 0.94-7.34 2.46-16.87 8.54-16.94 8.6l-1.34 0.86z m-19.14-35.79L437.6 117.31c0.92-0.62 11.45-6.74 13.64-7.78a121.54 121.54 0 0 1 55.37-16c2.2-0.08 4.43-0.11 6.7-0.07 19.05 0.32 38.28 5 57.14 13.92l1.46 0.76 258.57 148.8c0.11 0.07 0.84 0.59 1.26 0.9C840.09 264 895 306 897.51 361.41c0.18 1.43 0.25 10.93 0.25 12.42l-0.5 150.89 0.37 150.47c0 1.52-0.08 11.28-0.27 12.73-2.6 55.08-57 96.94-65.82 103.44-0.52 0.38-1.42 1-1.54 1.07l-1 0.64s-258.79 148.6-259.22 148.8c-18.88 8.89-38.13 13.57-57.29 13.9q-3.45 0-6.81-0.07a123.52 123.52 0 0 1-55.73-15.91c-2.27-1.07-13-7.31-13.88-7.92L185.76 787.44c-58.85-31-67.12-85.91-64.67-112.48 0-2 0.06-12 0.15-13V387.41c-0.09-1-0.19-11.07-0.15-13.08-2.45-26.61 5.83-81.57 64.69-112.54z" fill="#0EBBCB" opacity=".67" p-id="2371"></path><path d="M204.48 296.62c-36.74 19.17-42.13 50.35-43.8 63.87-0.09 0.73-0.05 2.22-0.11 2.91a109.73 109.73 0 0 0 0.13 16.17l0.14 2.11v287.18l-0.14 1.06a108.31 108.31 0 0 0-0.21 15.84v2.13c1.29 14.82 7.22 45.31 43.28 64.43l0.89 0.48 0.47 0.25 257.43 148.63c0.05 0 9.19 5.92 17.09 8.58 0.26 0.08 0.75 0.37 1 0.45a90.06 90.06 0 0 0 27.12 5.48 84 84 0 0 0 8.52-0.15 101.51 101.51 0 0 0 35.93-9.57l256.2-147.11c6.55-4.88 41.81-33.09 48.31-65.15 0.92-3.5 1.43-11 1.43-14.67l-0.39-154.87 0.52-155c0-3.68-0.51-11.28-1.43-14.8-6.5-32-41.51-60.06-48.13-65L552.94 142.82a100.65 100.65 0 0 0-35.57-9.54 86.57 86.57 0 0 0-8.79-0.16 96.67 96.67 0 0 0-25.46 5c-0.56 0.17-1.64 0.73-2.17 0.91-7.87 2.64-16.95 8.5-17 8.56l-1.34 0.88z m-18.12-33.88L437.54 118.6c0.79-0.53 11.72-6.88 13.61-7.77a119.88 119.88 0 0 1 55.15-16.16c2.19-0.08 4.41-0.11 6.68-0.08 19 0.27 38.19 4.93 57 13.82l1.38 0.72 258.55 148.74c0.12 0.08 0.81 0.56 1.26 0.9C839.62 265 894.28 307 896.46 362c0.16 1.22 0.21 11.09 0.21 12.36l-0.49 150.32 0.37 149.89c0 1.3-0.07 11.43-0.23 12.68C894.09 742 840 783.81 831 790.42c-0.55 0.41-1.4 1-1.53 1.07l-1 0.63s-258.81 148.6-259.18 148.77c-18.84 8.87-38 13.52-57.16 13.8q-3.45 0-6.78-0.09a121.71 121.71 0 0 1-55.52-16.11c-1.95-0.92-13.07-7.39-13.85-7.91L186.34 786.49c-58.53-30.77-66.69-85.69-64-112.15 0-1.72 0.05-12.08 0.13-12.94V388c-0.08-0.86-0.16-11.3-0.13-13-2.69-26.55 5.48-81.46 64.02-112.26z" fill="#0EBBCB" opacity=".71" p-id="2372"></path><path d="M204 295.66c-36.41 19-42.52 49.66-44.31 64-0.1 0.78-0.08 2.19-0.15 2.93a101.71 101.71 0 0 0 0.15 16.24l0.15 2.12v288.56l-0.15 1.06a99.22 99.22 0 0 0-0.23 15.91c0.05 0.55 0 1.58 0.08 2.15 1.41 15.44 7.89 45.59 43.75 64.63l0.9 0.48 0.47 0.26 258.09 149a88.36 88.36 0 0 0 17.17 8.54c0.27 0.09 0.74 0.35 1 0.44a90.79 90.79 0 0 0 27.25 5.29c2.8 0.08 5.65 0 8.54-0.19a103 103 0 0 0 36-9.67L809 760.27c6.18-4.6 41.77-32.83 48.71-65.35a74.57 74.57 0 0 0 1.52-14.72l-0.39-155.53 0.52-155.62a75.15 75.15 0 0 0-1.52-14.86c-7-32.49-42.29-60.54-48.53-65.17L553.44 141.85a102.46 102.46 0 0 0-35.64-9.64 87.21 87.21 0 0 0-8.8-0.21 96.11 96.11 0 0 0-25.57 4.82c-0.61 0.18-1.63 0.69-2.2 0.88a85.69 85.69 0 0 0-17.09 8.53l-1.34 0.88z m-17.1-32l250.58-143.77c0.66-0.44 12-7 13.57-7.76A118 118 0 0 1 506 95.77c2.19-0.09 4.41-0.13 6.67-0.1 19 0.23 38.09 4.86 56.88 13.72l1.3 0.69 258.5 148.72 1.25 0.89c8.55 6.29 63 48.27 64.82 103 0.12 1 0.16 11.26 0.16 12.32l-0.49 149.74 0.37 149.3c0 1.08-0.05 11.59-0.18 12.63-1.86 54.34-55.73 96.11-64.84 102.83-0.59 0.44-1.37 1-1.52 1.07l-1 0.63s-258.77 148.55-259.08 148.7c-18.8 8.85-38 13.46-57 13.7-2.3 0-4.56 0-6.77-0.11a119.83 119.83 0 0 1-55.31-16.32c-1.62-0.76-13.15-7.47-13.8-7.9l-249-143.75c-58.22-30.59-66.27-85.45-63.38-111.8 0-1.44 0-12.18 0.11-12.89v-272.3c-0.07-0.72-0.14-11.55-0.11-13-2.92-26.36 5.14-81.23 63.36-111.84z" fill="#0EBBCB" opacity=".76" p-id="2373"></path><path d="M203.59 294.69c-36.07 18.83-42.9 49-44.81 64.24-0.1 0.83-0.11 2.16-0.18 2.94a94.45 94.45 0 0 0 0.15 16.32l0.16 2.13v289.83l-0.16 1.08a94.05 94.05 0 0 0-0.24 16c0.05 0.57 0 1.54 0.11 2.15 1.53 16.07 8.56 45.88 44.23 64.84l0.9 0.48 0.47 0.26 258.72 149.42a84.37 84.37 0 0 0 17.25 8.5c0.29 0.1 0.74 0.33 1 0.42a91.19 91.19 0 0 0 27.38 5.11q4.23 0.09 8.56-0.24a104.24 104.24 0 0 0 36.09-9.76l256.41-147.23c5.82-4.32 41.74-32.56 49.11-65.54a71 71 0 0 0 1.61-14.78l-0.35-156.2 0.52-156.27a71.47 71.47 0 0 0-1.62-14.92c-7.38-33-43.05-61-48.93-65.36l-256-147.22a103.77 103.77 0 0 0-35.72-9.75c-3-0.23-5.93-0.3-8.83-0.24a95.57 95.57 0 0 0-25.69 4.63c-0.65 0.19-1.62 0.65-2.23 0.85a82.17 82.17 0 0 0-17.16 8.49l-1.34 0.89z m-16.07-30l249.9-143.47c0.53-0.36 12.28-7.15 13.53-7.75a116.25 116.25 0 0 1 54.72-16.57c2.18-0.1 4.39-0.14 6.65-0.12 18.9 0.19 38 4.79 56.74 13.63l1.23 0.65 258.5 148.71 1.24 0.89c8.64 6.37 62.89 48.31 64.34 102.66 0.1 0.82 0.13 11.43 0.13 12.27l-0.5 149.13 0.37 148.71c0 0.87 0 11.75-0.14 12.58-1.49 54-55.1 95.7-64.35 102.53-0.62 0.47-1.35 1-1.51 1.07l-1 0.63s-258.72 148.57-259 148.68c-18.77 8.84-37.9 13.42-56.9 13.61q-3.44 0-6.75-0.12a117.9 117.9 0 0 1-55.09-16.53c-1.3-0.61-13.24-7.55-13.76-7.89L187.51 784.58c-57.89-30.41-65.84-85.23-62.73-111.47 0-1.14 0-12.26 0.09-12.83V389.1c-0.06-0.57-0.11-11.78-0.09-12.92-3.11-26.27 4.84-81.09 62.74-111.53z" fill="#0EBBCB" opacity=".81" p-id="2374"></path><path d="M203.15 293.73c-35.74 18.65-43.29 48.27-45.32 64.42-0.11 0.88-0.14 2.13-0.22 3a87 87 0 0 0 0.17 16.39l0.17 2.15V670.8l-0.17 1.08a86.28 86.28 0 0 0-0.25 16c0.05 0.61 0.05 1.52 0.12 2.16 1.67 16.7 9.24 46.17 44.71 65 0.26 0.14 0.64 0.35 0.91 0.48l0.47 0.26 259.4 149.86a81.06 81.06 0 0 0 17.32 8.45c0.31 0.1 0.73 0.31 1 0.41a91.78 91.78 0 0 0 27.54 5.02c2.83 0.05 5.69 0 8.59-0.28a105.73 105.73 0 0 0 36.17-9.87l256.47-147.28c5.45-4 41.7-32.3 49.5-65.74a67 67 0 0 0 1.71-14.83l-0.39-156.86 0.52-156.93a67.68 67.68 0 0 0-1.72-15c-7.85-33.4-43.85-61.46-49.32-65.53L554.44 139.92a105.18 105.18 0 0 0-35.79-9.84q-4.49-0.36-8.86-0.29a94.5 94.5 0 0 0-25.79 4.44c-0.68 0.2-1.6 0.61-2.25 0.82a78.53 78.53 0 0 0-17.23 8.46l-1.34 0.89z m-15-28.13l249.21-143.13c0.39-0.27 12.55-7.29 13.5-7.74A114.15 114.15 0 0 1 505.36 98c2.16-0.11 4.37-0.15 6.63-0.14 18.84 0.14 37.9 4.71 56.61 13.53l1.15 0.61 258.48 148.67 1.22 0.88c8.75 6.45 62.78 48.35 63.87 102.35 0.08 0.61 0.09 11.59 0.09 12.23l-0.49 148.58 0.37 148.13c0 0.65 0 11.91-0.1 12.54-1.11 53.6-54.47 95.28-63.85 102.22-0.66 0.5-1.33 1-1.49 1.08l-1 0.61S568.13 937.86 568 937.94c-18.73 8.82-37.82 13.37-56.77 13.51-2.29 0-4.53 0-6.73-0.14a115.7 115.7 0 0 1-54.87-16.74c-1-0.46-13.33-7.62-13.72-7.88L188.1 783.63c-57.58-30.24-65.42-85-62.09-111.13 0-0.86 0-12.35 0.06-12.78v-270c0-0.43-0.08-12-0.06-12.88-3.33-26.21 4.51-80.97 62.1-111.24z" fill="#0EBBCB" opacity=".86" p-id="2375"></path><path d="M202.71 292.77c-35.4 18.47-43.69 47.58-45.83 64.6-0.11 0.93-0.17 2.09-0.25 3a83.16 83.16 0 0 0 0.17 16.47l0.2 2.16v292.45l-0.18 1.08a82.18 82.18 0 0 0-0.26 16.12c0.05 0.65 0.08 1.5 0.15 2.18 1.79 17.32 9.91 46.46 45.19 65.25l0.91 0.49 0.47 0.25 260.05 150.27a77.84 77.84 0 0 0 17.4 8.41c0.32 0.11 0.73 0.29 1.06 0.39a91.71 91.71 0 0 0 27.63 4.73q4.26 0 8.61-0.31a107.16 107.16 0 0 0 36.25-10L810.83 763c5.08-3.76 41.66-32 49.9-66a64.59 64.59 0 0 0 1.8-14.88l-0.39-157.52 0.53-157.59a64.68 64.68 0 0 0-1.83-15c-8.24-33.89-44.58-62-49.72-65.75L554.94 139a106.59 106.59 0 0 0-35.87-10c-3-0.25-6-0.36-8.88-0.33a92.88 92.88 0 0 0-25.92 4.25c-0.72 0.21-1.6 0.57-2.28 0.8a74.93 74.93 0 0 0-17.3 8.41l-1.35 0.91z m-14-26.21l248.59-142.8c0.26-0.18 12.83-7.43 13.46-7.73a112.24 112.24 0 0 1 54.28-17q3.24-0.17 6.62-0.15c18.79 0.09 37.81 4.63 56.47 13.44l1.08 0.56L827.66 261.6c0.15 0.11 0.66 0.46 1.22 0.88 8.85 6.53 62.67 48.39 63.4 102 0.05 0.4 0 11.75 0 12.17l-0.48 148 0.37 147.54c0 0.43 0 12.07-0.06 12.49-0.74 53.24-53.85 94.87-63.35 101.92-0.7 0.52-1.32 1-1.49 1.08l-1 0.61L567.5 937c-18.69 8.8-37.74 13.32-56.63 13.41q-3.44 0-6.72-0.16c-29.69-1.55-49.74-13.79-54.65-16.94-0.65-0.31-13.43-7.7-13.68-7.88L188.68 782.68c-57.26-30.06-65-84.78-61.44-110.8V390.23v-12.82c-3.54-26.05 4.19-80.76 61.45-110.85z" fill="#0EBBCB" opacity=".9" p-id="2376"></path><path d="M202.27 291.81c-35.07 18.3-44.08 46.88-46.34 64.78-0.12 1-0.2 2.06-0.29 3a78.17 78.17 0 0 0 0.18 16.54l0.2 2.17v293.8l-0.2 1.09a77.36 77.36 0 0 0-0.27 16.19c0 0.68 0.1 1.47 0.18 2.18 1.91 18 10.58 46.75 45.66 65.46l0.91 0.49 0.48 0.26 260.75 150.67a74.68 74.68 0 0 0 17.47 8.38c0.34 0.11 0.72 0.26 1.07 0.37a91.86 91.86 0 0 0 27.76 4.54q4.29 0 8.63-0.35a108.82 108.82 0 0 0 36.34-10.08l256.63-147.38c4.71-3.48 41.62-31.78 50.29-66.14a61.52 61.52 0 0 0 1.91-14.95l-0.4-158.18 0.53-158.24a62.11 62.11 0 0 0-1.93-15.09c-8.67-34.36-45.35-62.44-50.11-65.94L555.44 138a107.81 107.81 0 0 0-35.94-10q-4.49-0.4-8.91-0.38a91.19 91.19 0 0 0-26 4.06c-0.75 0.23-1.58 0.53-2.29 0.77a72.09 72.09 0 0 0-17.38 8.38l-1.35 0.91z m-13-24.3L437.24 125c0.13-0.08 13.11-7.55 13.42-7.7 4.58-3.06 24.4-15.57 54.07-17.19q3.22-0.18 6.6-0.17c18.74 0 37.71 4.56 56.34 13.34l1 0.53L827.1 262.53c0.16 0.12 0.62 0.44 1.21 0.88 8.94 6.61 62.56 48.43 62.92 101.74v12.13l-0.48 147.43 0.37 146.95v12.44c-0.37 52.87-53.22 94.46-62.86 101.63l-1.48 1.07-1 0.6L567.05 936c-18.65 8.78-37.66 13.26-56.5 13.31-2.28 0-4.52-0.06-6.7-0.17-29.92-1.63-50-14.16-54.44-17.16-0.32-0.15-13.51-7.78-13.64-7.86l-246.5-142.39c-56.94-29.89-64.56-84.55-60.8-110.46V390.8v-12.77c-3.76-25.94 3.86-80.61 60.8-110.52z" fill="#0EBBCB" opacity=".95" p-id="2377"></path><path d="M511 126.45c-28 0-45.75 12.82-45.93 13l-1.35 0.92-261.9 150.48c-55.88 29.16-47 84-47 84.58l0.2 2.18v295.14l-0.2 1.09c-0.33 2.18-8.4 55.68 47 84.61l0.48 0.26L463.72 909.8c0.13 0.09 18.32 13 46.52 13 14.86 0 30-3.56 45.07-10.57L812 764.83c5-3.65 52.69-40 52.69-81.34l-0.41-158.84 0.54-158.91c0-41.51-47.52-77.59-52.53-81.27L555.94 137c-15.05-7-30.15-10.55-44.94-10.55z m-0.76 821.76c-33.86 0-56.57-14.51-60.91-17.55L189.86 780.77c-56.63-29.7-64.14-84.32-60.16-110.12v-292c-4-25.82 3.53-80.44 60.16-110.18l260.71-149.83c4.45-3.1 26.87-17.58 60.43-17.58 18.69 0 37.62 4.48 56.21 13.24l0.92 0.49 258.41 148.68c2.59 1.83 63.65 45.68 63.65 102.3l-0.52 158.94 0.4 158.76c0 56.65-61.25 100.55-63.84 102.39l-1 0.6L566.6 935c-18.6 8.76-37.6 13.21-56.36 13.21z" fill="#0EBBCB" opacity=".3" p-id="2378"></path><path d="M501.89 945.65c-32.82 0-54.06-14.42-56.76-16.37L185.39 779.13c-63.95-33.38-56.63-96.38-55.69-102.76V383c-0.94-6.35-8.26-69.38 55.87-102.88l260.61-150c2.76-2 23.72-16.38 56.34-16.38 17.57 0 35.4 4.2 53 12.48l257.73 148.25c2.88 2 60.85 43.67 60.85 96.36l-0.5 158.87 0.4 158.85c0 52.72-58.13 94.41-60.6 96.16L555.34 933c-17.94 8.46-35.81 12.65-53.45 12.65z m0.63-821.78c-31 0-50.32 14.39-50.5 14.54l-0.54 0.37-261 150.28c-60.7 31.69-51.13 90.27-50.68 92.72l0.07 0.89-0.07 295c-0.45 2.44-10 61 50.49 92.66L450.94 921c0.18 0.18 20 14.57 50.95 14.57 16.13 0 32.54-3.91 48.74-11.55L808 776.18c0.16-0.18 55.91-40.2 55.91-87.6l-0.4-158.88 0.5-158.87c0-47.43-55.61-87.43-56.15-87.83l-257-147.75c-15.92-7.47-32.26-11.38-48.34-11.38z" fill="#0EBBCB" p-id="2379"></path><path d="M160.12 615.89a20.3 20.3 0 0 1-20.28 20.31 20.31 20.31 0 0 1-20.29-20.31V448.6a20.3 20.3 0 0 1 20.29-20.31 20.29 20.29 0 0 1 20.28 20.31zM885.16 615.89a20.3 20.3 0 0 1-20.28 20.31 20.3 20.3 0 0 1-20.29-20.31V448.6a20.29 20.29 0 0 1 20.29-20.31 20.29 20.29 0 0 1 20.28 20.31zM623.54 906.64a20.24 20.24 0 0 1-27.72-7.42 20.28 20.28 0 0 1 7.43-27.69l144.84-83.75a20.28 20.28 0 0 1 27.7 7.39 20.3 20.3 0 0 1-7.4 27.72zM502.43 886.12c-29 0-47.07-13.33-47.82-13.87L231.44 743c-56.67-29.62-46-86.53-45.92-87.1l-0.05-252.83c-0.07-0.05-10.7-57 46.07-86.67L455.23 187c0.48-0.38 18.48-13.71 47.44-13.71 14.85 0 29.92 3.54 44.81 10.57l221.93 127.6c2.28 1.6 51.48 36.94 51.48 81.41l-0.42 136.84 0.38 136.82c0 44.47-49.24 79.84-51.34 81.3l-222 127.65c-15.11 7.11-30.21 10.64-45.08 10.64z m0.24-707.81c-27.28 0-44.46 12.76-44.64 12.9L234 320.84c-53.42 27.92-43.92 79.52-43.48 81.71v253.79c-0.47 2.71-10 54.3 43.37 82.17L457.4 868c0.42 0.32 17.8 13.08 45 13.08 14.14 0 28.5-3.42 42.71-10.12l221.67-127.39c0.29-0.2 49-35.2 49-77l-0.39-136.84 0.44-136.84c0-41.85-48.68-76.82-49.17-77.16L545.14 188.34c-14.02-6.61-28.4-10.03-42.47-10.03z" fill="#0EBBCB" p-id="2380"></path><path d="M503.92 405.82c-69.75 0-126.48 56.73-126.48 126.43a126.62 126.62 0 0 0 126.48 126.47c69.7 0 126.45-56.75 126.45-126.47s-56.75-126.43-126.45-126.43z m0 223a96.58 96.58 0 1 1 96.58-96.6 96.72 96.72 0 0 1-96.58 96.6z m0 0M503.92 383.86a7.45 7.45 0 0 0 7.46-7.48v-48a7.47 7.47 0 1 0-14.93 0v48a7.48 7.48 0 0 0 7.47 7.48z m0 0M419.5 401a7.49 7.49 0 0 0 6.44 3.74 7.67 7.67 0 0 0 3.75-1 7.44 7.44 0 0 0 2.72-10.21l-24-41.53a7.48 7.48 0 0 0-12.95 7.49z m0 0M372.64 447.82l-41.55-23.93a7.45 7.45 0 1 0-7.45 12.9l41.52 24a7.37 7.37 0 0 0 3.73 1 7.51 7.51 0 0 0 3.75-14z m0 0M355.49 532.25a7.48 7.48 0 0 0-7.51-7.46H300a7.46 7.46 0 0 0 0 14.91h48a7.45 7.45 0 0 0 7.51-7.45z m0 0M365.16 603.75l-41.52 24a7.47 7.47 0 1 0 7.45 12.95l41.55-24a7.46 7.46 0 0 0-7.48-12.92z m0 0M429.69 660.82a7.48 7.48 0 0 0-10.19 2.73l-24 41.52a7.48 7.48 0 0 0 12.95 7.48l24-41.5a7.45 7.45 0 0 0-2.72-10.23z m0 0M503.92 680.69a7.48 7.48 0 0 0-7.47 7.48v47.94a7.47 7.47 0 0 0 14.93 0v-47.94a7.45 7.45 0 0 0-7.46-7.48z m0 0M588.33 663.55a7.47 7.47 0 1 0-12.93 7.5l24 41.5a7.52 7.52 0 0 0 10.2 2.74 7.52 7.52 0 0 0 2.74-10.22z m0 0M684.18 627.7l-41.52-24a7.46 7.46 0 1 0-7.46 12.92l41.5 24a7.59 7.59 0 0 0 3.75 1 7.51 7.51 0 0 0 3.73-14z m0 0M707.77 524.79h-47.95a7.46 7.46 0 1 0 0 14.91h47.95a7.46 7.46 0 0 0 0-14.91z m0 0M638.93 461.81a7.32 7.32 0 0 0 3.73-1l41.52-24a7.46 7.46 0 1 0-7.48-12.9l-41.5 23.93a7.51 7.51 0 0 0 3.73 14z m0 0M578.13 403.73a7.67 7.67 0 0 0 3.74 1 7.49 7.49 0 0 0 6.46-3.74l24-41.52a7.48 7.48 0 1 0-12.95-7.47l-24 41.53a7.46 7.46 0 0 0 2.73 10.21z m0 0" fill="#0EBBCB" p-id="2381"></path></svg>